<svg width="944" height="585" viewBox="0 0 944 585" fill="none" xmlns="http://www.w3.org/2000/svg">
<rect y="239.375" width="378.401" height="442.564" rx="30" transform="rotate(-38.7527 0 239.375)" fill="#D5A794"/>
<rect x="190.781" y="84.956" width="378.401" height="442.564" rx="30" transform="rotate(-8.78108 190.781 84.956)" fill="#7AE284"/>
<rect x="606.011" y="10.5111" width="378.401" height="442.564" rx="30" transform="rotate(26.7229 606.011 10.5111)" fill="#F16C59"/>
<path d="M288 0.0111386C267 -1.48886 107 149.011 107 149.011L257.5 29.5112C288.194 0.907385 307 18.0112 338 62.0112L534.5 33.0112C561.947 29.5059 569.063 40.9468 573 83.0111C594.412 39.6427 604.212 16.109 637 23.5111L837.5 125.011V111.511C837.5 111.511 646.5 10.5113 639 8.5112C631.5 6.51114 607.5 13.5111 600 22.0112C592.5 30.5113 582.5 60.0111 577 62.5111C571.5 65.0112 575 40.5112 575 40.5112C571.724 22.8355 567.009 22.0665 534.5 22.0112C534.5 22.0112 351 56.5112 343.5 48.5112C336 40.5112 309 1.51114 288 0.0111386Z" fill="white"/>
</svg>
